# xmcd
#
# Track frame offsets: 
#        150
#        12922
#        24087
#        36890
#        49052
#        64135
#        76840
#        86512
#        99872
#        113880
#        126455
#        146692
#        176790
#        187605
#        197150
#        215585
#        236627
#        247570
#        258242
#        270500
#        287552
#
# Disc length: 4147 seconds
#
# Revision: 9
# Processed by: cddbd v1.5.2PL0 Copyright (c) Steve Scherf et al.
# Submitted via: ExactAudioCopyFreeDBPlugin 1.0
#
DISCID=16103115
DTITLE=Various Artist - Stax of Funk:  The Funky Truth (Volumes I and
DTITLE=II)
DYEAR=2000
DGENRE=Soul
TTITLE0=Jean Knight - Do Me
TTITLE1=Roy Lee Johnson - Patch It Up
TTITLE2=Rufus Thomas - Turn Your Damper Down
TTITLE3=Lee Sain - She's My Old Lady Too
TTITLE4=Bobby Holley - Movin' Dancer
TTITLE5=Kim Weston - Brothers and Sisters (Get Together)
TTITLE6=Mable John - Running Out
TTITLE7=The Sweet Inspirations - Slipped and Tripped
TTITLE8=Inez Foxx - Watch the Dog That Brings the Bone
TTITLE9=Hot Sauce - I'll Kill a Brick (About My Man)
TTITLE10=Chris and Shack - A Man Never Knows
TTITLE11=Little Sonny - Eli's Pork Chop
TTITLE12=The Bar-Kays - Sock Soul
TTITLE13=Art Jerry Miller - Grab a Handful
TTITLE14=Harvey Scales - Broadway Freeze
TTITLE15=Rufus Thomas - Funky Hot Grits
TTITLE16=Melvin Van Peebles - Hoppin' John
TTITLE17=Roy Lee Johnson - The Dryer
TTITLE18=Black Nasty - Getting Funky Round Here
TTITLE19=Round Robin Monopoly - Life is Funky
TTITLE20=The Soul Children - Who is She (And What is She to You)
EXTD=YEAR: 1971
EXTT0=
EXTT1=
EXTT2=
EXTT3=
EXTT4=
EXTT5=
EXTT6=
EXTT7=
EXTT8=
EXTT9=
EXTT10=
EXTT11=
EXTT12=
EXTT13=
EXTT14=
EXTT15=
EXTT16=
EXTT17=
EXTT18=
EXTT19=
EXTT20=
PLAYORDER=
